<?xml version="1.0"?>
<!DOCTYPE svg PUBLIC "-//W3C//DTD SVG 1.1//EN" "http://www.w3.org/Graphics/SVG/1.1/DTD/svg11.dtd">
<svg xmlns="http://www.w3.org/2000/svg" xmlns:xl="http://www.w3.org/1999/xlink" version="1.1" viewBox="-113 94 908 395" width="908pt" height="395pt"><metadata xmlns:dc="http://purl.org/dc/elements/1.1/"><dc:date>2013-04-04 19:48Z</dc:date><!-- Produced by OmniGraffle Professional 5.4.2 --></metadata><defs></defs><g stroke="none" stroke-opacity="1" stroke-dasharray="none" fill="none" fill-opacity="1"><title>Canvas 1</title><g><title>Layer 1</title><path d="M 560.6802 256.6631 C 573.9192 256.6631 573.9192 243.4251 573.9192 243.4251 L 573.9192 170.6091 C 573.9192 157.3701 560.6802 157.3701 560.6802 157.3701 L 527.5822 157.3701 L 540.8222 130.8921 L 520.9632 130.8921 L 507.7232 157.3701 L 494.4852 130.8921 L 474.6252 130.8921 L 487.8652 157.3701 L 454.7672 157.3701 C 441.5282 157.3701 441.5282 170.6091 441.5282 170.6091 L 441.5282 243.4251 C 441.5282 256.6631 454.7672 256.6631 454.7672 256.6631 Z" fill="#73b632"/><rect x="468.007" y="183.849" width="13.238" height="13.238" fill="#fffffe"/><rect x="534.202" y="183.849" width="13.239" height="13.238" fill="#fffffe"/><rect x="487.865" y="210.326" width="39.718" height="13.239" fill="#fffffe"/><path d="M 639.2671 150.75 C 626.0281 150.75 626.0281 163.989 626.0281 163.989 L 626.0281 243.425 C 626.0281 256.663 639.2671 256.663 639.2671 256.663 L 665.7451 256.663 L 659.1251 283.142 L 678.9851 283.142 L 692.2231 236.805 L 705.4621 283.142 L 725.3221 283.142 L 718.7021 256.663 L 745.1801 256.663 C 758.4181 256.663 758.4181 243.425 758.4181 243.425 L 758.4181 163.989 C 758.4181 150.75 745.1801 150.75 745.1801 150.75 Z" fill="#279f5b"/><rect x="652.507" y="177.229" width="13.238" height="19.858" fill="#fffffe"/><rect x="718.702" y="177.229" width="13.239" height="19.858" fill="#fffffe"/><rect x="672.365" y="210.326" width="39.718" height="13.239" fill="#fffffe"/><path d="M -42.8745 256.6631 L -56.1135 283.1421 L -36.2545 283.1421 L -23.0155 256.6631 L -9.7765 283.1421 L 10.0825 283.1421 L -3.1565 256.6631 L 16.7015 256.6631 C 29.9405 256.6631 29.9405 243.4251 29.9405 243.4251 L 29.9405 170.6091 C 29.9405 157.3701 16.7015 157.3701 16.7015 157.3701 L -3.1565 157.3701 L 10.0825 130.8921 L -9.7765 130.8921 L -23.0155 157.3701 L -36.2545 130.8921 L -56.1135 130.8921 L -42.8745 157.3701 L -62.7325 157.3701 C -75.9725 157.3701 -75.9725 170.6091 -75.9725 170.6091 L -75.9725 243.4251 C -75.9725 256.6631 -62.7325 256.6631 -62.7325 256.6631 Z" fill="#d63e20"/><rect x="-49.494" y="183.849" width="13.24" height="13.238" fill="#fffffe"/><rect x="-9.777" y="183.849" width="13.239" height="13.238" fill="#fffffe"/><rect x="-42.875" y="216.947" width="39.718" height="13.239" fill="#fffffe"/><path d="M 129.2344 256.6631 L 115.9954 283.1421 L 135.8544 283.1421 L 149.0934 256.6631 L 162.3324 283.1421 L 182.1914 283.1421 L 168.9514 256.6631 L 202.0494 256.6631 C 215.2884 256.6631 215.2884 243.4251 215.2884 243.4251 L 215.2884 170.6091 C 215.2884 157.3701 202.0494 157.3701 202.0494 157.3701 L 168.9514 157.3701 L 182.1914 144.1311 L 162.3324 144.1311 L 148.9094 156.6791 L 135.8544 144.1311 L 115.9954 144.1311 L 129.2344 157.3701 L 96.1364 157.3701 C 82.8974 157.3701 82.8974 170.6091 82.8974 170.6091 L 82.8974 243.4251 C 82.8974 256.6631 96.1364 256.6631 96.1364 256.6631 Z" fill="#eb9c21"/><rect x="115.995" y="183.849" width="13.239" height="19.858" fill="#fffffe"/><rect x="168.952" y="183.849" width="13.239" height="19.858" fill="#fffffe"/><rect x="129.235" y="216.947" width="39.717" height="13.239" fill="#fffffe"/><path d="M 374.1587 269.9034 C 387.3967 269.9034 387.3967 256.6634 387.3967 256.6634 L 387.3967 163.9894 C 387.3967 150.7504 374.1587 150.7504 374.1587 150.7504 L 341.0607 150.7504 L 360.9187 130.8914 L 341.0607 130.8914 L 327.8207 144.1314 L 314.5827 130.8914 L 294.7227 130.8914 L 314.5827 150.7504 L 281.4847 150.7504 C 268.2447 150.7504 268.2447 163.9894 268.2447 163.9894 L 268.2447 256.6634 C 268.2447 269.9034 281.4847 269.9034 281.4847 269.9034 Z" fill="#3fab96"/><rect x="294.723" y="177.229" width="13.239" height="19.858" fill="#fffffe"/><rect x="347.68" y="177.229" width="13.238" height="19.858" fill="#fffffe"/><rect x="314.583" y="203.707" width="26.479" height="13.239" fill="#fffffe"/><path d="M -45.6596 398.667 C -37.0106 398.667 -32.1616 394.343 -32.1616 387.135 C -32.1616 380.19 -36.8796 375.997 -45.3976 375.997 L -55.4876 375.997 L -55.4876 398.667 Z M -55.4876 435.752 C -55.4876 445.843 -58.8946 450.821 -66.1016 450.821 C -73.3096 450.821 -76.7166 445.843 -76.7166 435.752 L -76.7166 371.41 C -76.7166 361.058 -73.8336 356.471 -62.0396 356.471 L -45.5286 356.471 C -22.5966 356.471 -10.0156 368.396 -10.0156 385.563 C -10.0156 398.798 -18.2716 408.364 -32.2926 410.724 L -15.5196 429.331 C -11.3266 434.048 -9.2296 438.11 -9.2296 441.519 C -9.2296 447.021 -13.4226 451.478 -19.3196 451.478 C -23.5136 451.478 -26.7896 448.726 -30.7206 443.877 L -55.4876 412.819 Z" fill="#3c3c3b"/><path d="M 31.2637 432.083 C 39.1257 432.083 44.8917 425.269 44.8917 414.523 C 44.8917 404.04 38.8637 397.226 31.2637 397.226 C 23.6627 397.226 17.6357 403.778 17.6357 414.523 C 17.6357 425.399 23.4007 432.083 31.2637 432.083 M 31.2637 377.831 C 51.7057 377.831 66.1207 393.294 66.1207 414.785 C 66.1207 436.276 51.7057 451.739 31.2637 451.739 C 10.9517 451.739 -3.7243 436.276 -3.7243 414.785 C -3.7243 393.294 10.9517 377.831 31.2637 377.831" fill="#3c3c3b"/><path d="M 110.2828 431.6905 C 118.0138 431.6905 123.9108 424.8765 123.9108 414.3915 C 123.9108 403.6465 118.0138 396.8325 110.2828 396.8325 C 102.5518 396.8325 96.6548 403.5155 96.6548 414.3915 C 96.6548 425.1375 102.5518 431.6905 110.2828 431.6905 M 113.2968 377.7005 C 130.5948 377.7005 145.0098 393.0325 145.0098 414.7855 C 145.0098 435.0965 130.2008 450.9535 113.2968 450.9535 C 106.4828 450.9535 100.5858 448.4635 96.5238 443.8775 C 94.0338 448.2015 90.7578 450.5595 86.6958 450.5595 C 79.6188 450.5595 76.3428 445.5805 76.3428 435.4905 L 76.3428 364.7275 C 76.3428 354.6365 79.6188 349.6575 86.6958 349.6575 C 93.7718 349.6575 97.0478 354.6365 97.0478 364.7275 L 97.0478 383.5975 C 101.1098 380.0595 106.3518 377.7005 113.2968 377.7005" fill="#3c3c3b"/><path d="M 186.1582 432.083 C 194.0202 432.083 199.7862 425.269 199.7862 414.523 C 199.7862 404.04 193.7582 397.226 186.1582 397.226 C 178.5572 397.226 172.5302 403.778 172.5302 414.523 C 172.5302 425.399 178.2952 432.083 186.1582 432.083 M 186.1582 377.831 C 206.6002 377.831 221.0152 393.294 221.0152 414.785 C 221.0152 436.276 206.6002 451.739 186.1582 451.739 C 165.8462 451.739 151.1702 436.276 151.1702 414.785 C 151.1702 393.294 165.8462 377.831 186.1582 377.831" fill="#3c3c3b"/><path d="M 234.6451 398.9288 C 227.3071 398.9288 222.9821 395.3908 222.9821 390.0178 C 222.9821 384.3838 227.1761 381.2388 235.4311 380.8458 L 235.4311 371.8038 C 235.4311 361.7128 238.7071 356.7338 245.7841 356.7338 C 252.7291 356.7338 256.0051 361.7128 256.0051 371.8038 L 256.0051 380.8458 L 257.8391 380.8458 C 266.0951 380.8458 270.8131 384.3838 270.8131 390.0178 C 270.8131 395.7838 266.4881 398.9288 257.7081 398.9288 L 256.0051 398.9288 L 256.0051 435.4908 C 256.0051 445.5798 252.8601 450.5598 245.7841 450.5598 C 238.7071 450.5598 235.4311 445.5798 235.4311 435.4908 L 235.4311 398.9288 Z" fill="#3c3c3b"/><path d="M 371.5855 413.3438 C 361.6255 413.3438 356.6475 410.4608 356.6475 403.5158 C 356.6475 396.5708 361.6255 393.5568 371.5855 393.5568 L 387.1795 393.5568 C 397.5315 393.5568 401.9865 397.4878 401.9865 407.7088 C 401.9865 433.6558 385.0825 452.3948 358.4815 452.3948 C 332.6655 452.3948 313.9265 432.6068 313.9265 402.9908 C 313.9265 372.7208 332.4025 353.7198 360.9715 353.7198 C 381.6755 353.7198 395.3035 363.9408 395.3035 373.1138 C 395.3035 378.3558 391.2415 383.0728 386.2625 383.0728 C 379.9725 383.0728 373.1575 374.0308 360.3145 374.0308 C 346.0315 374.0308 336.8585 384.6458 336.8585 402.5988 C 336.8585 420.9448 346.2935 432.0828 360.1845 432.0828 C 371.3225 432.0828 378.7925 424.8758 379.0555 413.3438 Z" fill="#3c3c3b"/><path d="M 442.6119 431.4278 C 450.2129 431.4278 455.8469 424.7448 455.8469 414.5238 C 455.8469 404.4328 450.0809 398.0118 442.6119 398.0118 C 435.1429 398.0118 429.2459 404.3018 429.2459 414.5238 C 429.2459 425.0068 435.0109 431.4278 442.6119 431.4278 M 439.2049 451.2148 C 422.2999 451.2148 407.8849 436.4068 407.8849 414.7848 C 407.8849 393.8188 422.4309 378.2248 439.9909 378.2248 C 447.0669 378.2248 452.3089 380.5828 456.5029 385.5628 C 458.8609 381.3698 462.1369 379.0108 466.3309 379.0108 C 473.4069 379.0108 476.5509 383.8598 476.5509 393.9498 L 476.5509 435.4898 C 476.5509 445.5798 473.2759 450.5598 466.3309 450.5598 C 461.7449 450.5598 458.7299 448.3318 456.5029 443.3528 C 452.3089 448.4638 446.2809 451.2148 439.2049 451.2148" fill="#3c3c3b"/><path d="M 490.8365 393.9497 C 490.8365 383.8597 494.1125 379.0107 501.1895 379.0107 C 505.2515 379.0107 508.5275 381.1077 511.0175 385.5627 C 515.3415 380.9767 520.1905 378.6177 525.0385 378.6177 C 530.8055 378.6177 535.5225 383.3347 535.5225 388.8387 C 535.5225 397.0947 526.3495 397.7497 517.9625 401.6807 C 512.1955 404.4327 511.5415 406.9227 511.5415 413.9987 L 511.5415 435.4907 C 511.5415 445.5797 508.2655 450.5597 501.1895 450.5597 C 494.1125 450.5597 490.8365 445.5797 490.8365 435.4907 Z" fill="#3c3c3b"/><path d="M 571.4283 431.6905 C 579.1593 431.6905 584.9263 425.0065 584.9263 414.3915 C 584.9263 403.5155 579.1593 396.8325 571.4283 396.8325 C 563.6973 396.8325 557.7993 403.6465 557.7993 414.3915 C 557.7993 424.8765 563.6973 431.6905 571.4283 431.6905 M 568.4143 450.9535 C 551.6413 450.9535 536.5713 435.2275 536.5713 414.1295 C 536.5713 393.1635 551.2483 377.7005 568.4143 377.7005 C 574.7043 377.7005 579.9463 379.5345 584.6633 383.5975 L 584.6633 364.7275 C 584.6633 354.6365 587.9403 349.6575 595.0163 349.6575 C 601.9613 349.6575 605.2373 354.6365 605.2373 364.7275 L 605.2373 435.4905 C 605.2373 445.5805 602.0923 450.5595 595.0163 450.5595 C 590.9533 450.5595 587.5463 448.2015 585.1883 443.8775 C 580.9943 448.4635 575.2293 450.9535 568.4143 450.9535" fill="#3c3c3b"/><path d="M 663.6841 407.0538 C 663.1601 399.8468 657.2621 394.7358 650.3171 394.7358 C 643.3721 394.7358 637.8691 399.4528 636.4271 407.0538 Z M 652.2841 432.8688 C 662.6351 432.8688 669.3191 426.1868 674.0361 426.1868 C 679.0161 426.1868 682.2911 429.4618 682.2911 434.1798 C 682.2911 442.3038 669.1881 451.4778 651.2351 451.4778 C 630.9231 451.4778 615.4601 436.0148 615.4601 414.9168 C 615.4601 393.8188 630.3991 377.9628 650.1861 377.9628 C 669.9741 377.9628 683.8641 393.6878 683.8641 412.1648 C 683.8641 419.2418 680.5881 420.5518 673.6431 420.5518 L 636.6891 420.5518 C 637.6061 428.2828 643.3721 432.8688 652.2841 432.8688" fill="#3c3c3b"/><path d="M 692.9087 393.9497 C 692.9087 383.8597 696.1847 379.0107 703.2617 379.0107 C 707.3237 379.0107 710.5997 381.1077 713.0897 385.5627 C 717.6767 380.5827 723.3107 378.6177 731.3047 378.6177 C 747.4227 378.6177 756.4647 387.9217 756.4647 405.8737 L 756.4647 435.4907 C 756.4647 445.5797 753.1877 450.5597 746.1117 450.5597 C 739.0357 450.5597 735.7607 445.5797 735.7607 435.4907 L 735.7607 412.1647 C 735.7607 401.2877 733.0087 396.1777 724.6217 396.1777 C 716.7587 396.1777 713.6137 401.5497 713.6137 411.9027 L 713.6137 435.4907 C 713.6137 445.5797 710.3377 450.5597 703.2617 450.5597 C 696.1847 450.5597 692.9087 445.5797 692.9087 435.4907 Z" fill="#3c3c3b"/></g></g></svg>
